<?xml version="1.0" encoding="utf-8"?>
<!-- Generator: Adobe Illustrator 24.0.0, SVG Export Plug-In . SVG Version: 6.00 Build 0)  -->
<svg version="1.1" id="Слой_1" xmlns="http://www.w3.org/2000/svg" xmlns:xlink="http://www.w3.org/1999/xlink" x="0px" y="0px"
	 viewBox="0 0 4000 4000" style="enable-background:new 0 0 4000 4000;" xml:space="preserve">
<style type="text/css">
	.st0{fill:#E63B46;}
	.st1{fill:#FFFFFF;stroke:#E63B46;stroke-width:1.2313;stroke-miterlimit:10;}
	.st2{fill:#467B9B;}
	.st3{fill:#E53747;}
	.st4{fill:#FFF4F6;}
	.st5{fill:#FAB981;}
	.st6{fill:#5FBBC4;}
	.st7{fill:none;stroke:#C8243A;stroke-width:8.663;stroke-miterlimit:10;}
	.st8{fill:none;stroke:#C9223B;stroke-width:8.663;stroke-miterlimit:10;}
	.st9{fill:#FDB582;}
	.st10{fill:none;stroke:#D99A72;stroke-width:7.1702;stroke-miterlimit:10;}
	.st11{fill:none;stroke:#D99A72;stroke-width:5.7753;stroke-miterlimit:10;}
	.st12{fill:#7ACED0;}
	.st13{fill:#1D3455;}
	.st14{fill:none;stroke:#1D3455;stroke-width:5.7753;stroke-miterlimit:10;}
	.st15{fill:#1D3456;}
	.st16{fill:none;stroke:#000000;stroke-width:7.7113;stroke-miterlimit:10;}
	.st17{fill:#D99A72;}
	.st18{fill:none;}
</style>
<path class="st0" d="M835.3,2997.06c-47.05-24.12-47.98-55.69-79.73-55.64c-16.38,0.03-41.24,19.49-90.95,58.42
	c-21.26,16.65-40.73,34.38-40.73,34.38c-19.61,17.41-24.54,23.09-38.7,35.07c0,0-21.36,18.07-47.46,35.14
	c-57.66,37.71-138.07,53.55-161.62,58.19c-27.6,5.44-69.08,12.33-82.56,40.54c-0.78,1.63-1.25,3.08-1.62,4.34
	c-8.49,28.78,19.89,76.54,19.88,76.54c-49.25-9.07,98.51,18.34,148.07,25.38c58.66,8.33,112.51,13.37,144.28,5.86
	c2.52-0.6,19.79-4.79,43.66-9.76c15.89-3.31,27.48-5.46,29.47-5.83c41.83-7.92,105.83-41.32,172.52-66.1
	c71.3-26.48,112.18-33.96,137.49-72.65c3.21-4.91,4.5-9.56,4.98-10.82c15.8-41.56,2.36-98.16-28.49-125.21
	C927.27,2992.87,895.75,3028.06,835.3,2997.06z"/>
<path class="st1" d="M640.24,3254.75c-25.28,5.33-55.93,10.72-91.12,14.64c-8.98,1-13.97,1.86-21.03,2.02
	c-19.71,0.45-35.71-3.84-94.29-6.41c-62.46-2.75-80.26,0.55-91.12-14.64c-11.49-16.07-18.64-38.48-11.39-55.64
	c10.75-25.44,45.57-29.81,44.83-32.1c-0.85-2.68-51.25-6.05-79.48,33.57c-19.13,26.84-17.73,58.9-10.4,80.12
	c2.32,6.71,7.73,21.83,21.79,33.11c14.08,11.3,28.92,12.5,49.11,14.49c6,0.59,22.07,3.66,49.25,6.25
	c8.13,0.77,26.95,2.47,51.65,3.59c5.71,0.26,28.95,1.27,60.72,1.1c19.53-0.11,35-0.62,40.26-0.83
	c63.58-2.51,138.87-19.42,138.17-28.51c-0.43-5.7-30.2-0.91-46.82-21.85C642.52,3273.78,640.71,3262.08,640.24,3254.75z"/>
<path class="st2" d="M3470.74,3308.7c29.76-17.09,94.86-89.82,121.09-141.91c1.08-2.14,12.76-25.45,27.39-57.23
	c0.93-2.03,13.81-30.02,23.19-52.17c8.69-20.51,30.33-72.12,47.6-137.87c0,0,14.86-56.57,22.92-120.03
	c10.95-86.31,12.63-212.77-20.48-486.12c-14.8-122.19-36.51-273.51-36.52-273.51l0,0c-39.35-137.39-95.21-326.37-235.08-517.55
	c-63.11-86.26-148.33-200.11-292.07-267.12c-60.53-28.22-152.64-58.02-292.07-50.09c-283.05,16.11-1095.26,190.89-1417.58,893.2
	c-41.31,90-139.06,302.99-131.57,576.65c4.77,174.23,51.7,354.78,72.14,433.39c29.14,112.1,43.71,168.16,59.43,192.02
	c188.7,286.39,918.92,158.6,918.94,158.6C2338.1,3458.96,3187,3471.64,3470.74,3308.7z"/>
<path class="st3" d="M2787.43,1255.19c27.59,7.75,67.07,31.6,146.03,79.3c70.75,42.74,106.12,64.11,121.1,83.48
	c62.12,80.34,56.25,200.88,53.43,258.78c-0.54,11.1-5.07,32.85-7.63,66.01c-2.8,36.21-1.72,51.73-4.08,93.24
	c-0.78,13.73-2.06,28.92-2.06,28.92c-1.92,25.13-3.26,38.19-3.79,44.74c-3.58,44.86,9.08,65.21,8.22,129.86
	c-0.3,22.8-1.96,26.67-4.91,29.57c-17.41,17.08-63.56-16.09-124.18-37.38c-61.35-21.54-113.13-39.72-153.64-21.05
	c-75.16,34.64-46.68,164.86-149.6,283.82c-52.83,61.07-103.4,81.33-181.65,112.69c-16.3,6.53-38.35,14.34-60.55,4.17
	c-33.55-15.37-38.94-58.76-56.99-100.17c-49.42-113.42-138.19-84.38-203.02-208.69c-18.1-34.7-41.6-79.76-28.49-121.04
	c15.01-47.26,65.31-49.48,85.48-112.69c8.13-25.46,10.81-59.1,0-66.78c-7.66-5.44-18.75,5.85-64.11,37.56
	c-52.43,36.66-68.33,43.66-84.6,47.54c-19.96,4.76-35.65,3.69-50.74,2.54c-40.39-3.08-117.05-19.87-120.88-52.15
	c-2.24-18.8,21.43-27.82,73.85-84.3c20.5-22.09,36.31-41.63,47.03-55.54c0,0,57.46-60.25,121.1-141.91
	c3.23-4.14,5.84-7.55,8.47-11.09c31.66-42.69,52.92-75.2,59.2-84.91c70.22-108.44,83.99-153.48,137.62-176.82
	c8.02-3.49,14.77-5.56,18.61-6.65c1.93-0.63,5.12-1.66,9.07-2.89c0,0,10.67-3.3,20.53-5.93c24.48-6.53,84.13,2.75,84.13,2.75
	c35.23,3.71,57.2,6.11,79.1,5.89C2687.18,1274.74,2703.02,1231.47,2787.43,1255.19z"/>
<path class="st4" d="M2107.7,1847.22c-11.38-22.96-36.31-21.7-110.11-39.05c-49.11-11.55-97.14-27.85-193.2-60.48
	c-121.93-41.41-160.81-65.87-181.65-45.91c-6.7,6.41-8.9,15.18-1.56,89.3c9.96,100.52,15.26,151.16,30.91,169.37
	c19.44,22.62,43.35,30.97,83.21,80.41c6.65,8.25,10.11,13.13,12.1,15.7c58.21,75.03,295.31,76.31,331.24-12.52
	c3.19-7.88,1.47-8.24,4.52-36.25C2094.56,1903.06,2122.08,1876.24,2107.7,1847.22z"/>
<path class="st5" d="M1312.86,2599.15c31.86,52.55,5.02,68.08,21.41,233.42c11.22,113.27,30.98,178.21-7.32,213.64
	c-18.54,17.15-42.73,20.04-46.14,20.4c-31.16,3.32-42.82-5.41-113.98-50.09c-6.68-4.19-14.22-17.33-28.94-20.05
	c-8.93-1.65-12.36,1.29-16,0.05c-18.62-6.34,4.21-105.81,12.21-203.71c7.6-93.04,11.9-145.75-2.44-216.13
	c-8.79-43.14-18.43-62.46-7.56-73.54C1149.92,2476.81,1263.01,2516.93,1312.86,2599.15z"/>
<path class="st5" d="M1084.9,2728.54c-0.52,17.7-14.6,54.93-42.74,129.39c-10.86,28.73-35.71,92.96-78.36,166.95
	c-34.18,59.3-46.18,66.55-56.99,66.78c-23.81,0.5-29.25-33.34-78.36-75.13c-40.38-34.35-56.3-28.15-64.11-50.09
	c-10.17-28.56,10.58-56.64,53.43-141.91c0,0,27.67-55.07,64.11-137.74c54.48-123.6,52.34-152.64,74.8-158.6
	C1004.03,2515.62,1087.96,2624.98,1084.9,2728.54z"/>
<path class="st6" d="M1708.21,2327.86c118.57,67.69,232.21,75.38,229.1,93.8c-2.02,11.97-50.48,12.6-95.39,13.18
	c-39.33,0.51-92.42,0.95-157.22-10.77c-23.02-4.16-40.76-9.02-76.28-18.51c-84.97-22.72-111.8-36.95-120.36-41.66
	c-26.67-14.68-46.93-30.93-61.05-43.81c-15.94-16.75-31.88-33.5-47.81-50.24c1.88,469.71-48.53,475.41-48.53,475.41
	c-12.29-6.78-31.25-16.36-55.42-24.9c-43.9-15.52-60.68-11.99-104.87-21.01c-45.55-9.31-136.6-28.45-160.28-91.82
	c-12.12-32.44-6.96-77.29,153.15-321.38c138.01-210.4,164.54-223.35,181.66-229.56C1438.48,2022.61,1511.82,2215.74,1708.21,2327.86
	z"/>
<path class="st7" d="M2929.9,1484.75c-40.43,47.01-64.46,93.32-78.36,125.21c-37.72,86.51-43.42,164.33-46.3,208.69
	c-3.57,55.04-0.28,101.18,3.56,133.56"/>
<path class="st8" d="M2883.6,1447.18c-13.9,27.16-30.89,68.14-39.18,121.04c-4.24,27.03-5.31,51.47-4.95,72.08"/>
<path class="st8" d="M2259.96,1459.7c-9.39,28.38-18.4,61.93-24.93,100.17c-12.41,72.72-11.37,136.32-7.13,183.65"/>
<path class="st9" d="M2868.47,1995.59c60.82,21.53,81.16,27.82,81.16,27.82c1.62,0.5,6.99,2.15,14.13,4.58
	c4.53,1.54,9.83,3.42,15.77,5.67c9.04,3.42,7.48,3.12,11.8,4.63c10.77,3.76,50.81,16.18,52.57,17.98c0.01,0.01,0.56,0.57,0.56,0.57
	l-0.56-0.57c-0.01,0.01,0.55,0.56,0.56,0.57c17.86,21.74-22.22,83.96-54.01,133.28c-33.15,51.46-50.33,76.17-67.67,87.65
	c-25.07,16.59-67.28,14.06-149.6,12.52c-7.49-0.14-31.65-0.96-79.98-2.59c-34.15-1.16-51.44-1.74-62.18-2.26
	c-15.67-0.75-58.47-2.12-100.04-7.67c-208.76-27.86-220.05-73.64-338.37-62.6c-25.29,2.36-55.73,7.33-92.6-8.35
	c-8-3.4-14.49-7.01-20.28-11.15c-44.15-31.56-48.03-54.34-100.82-109.89c-1.41-1.48-25.25-26.55-47.31-60.31
	c-4.18-6.39-8.73-13.77-10.88-24.42c-4.22-20.94,3.97-39.15,8.33-48.83c9.06-20.14,19.98-28.39,26.61-42.66
	c0.19-0.41,0.57-1.31,1.21-2.56c4.27-8.35,10.14-13.73,14.68-17.08c7.56-3.31,13.84-5.23,17.77-6.31c0,0,57.67-16.09,120.7,19.34
	c3.65,2.05,6.4,3.74,8.11,4.8c5.87,3.62,15.36,9.16,25.34,19.34c16.36,16.7,18.65,31.75,59.82,62.71
	c20.9,15.72,64.92,48.47,128.23,62.6c101.28,22.62,143.44,13.88,388.23,8.35c51.62,4.87,81.68-7.9,99.73-20.87
	C2837.78,2026.72,2868.47,1995.59,2868.47,1995.59z"/>
<line class="st10" x1="2071.52" y1="1971.45" x2="1937.33" y2="1943.99"/>
<line class="st11" x1="2043.02" y1="2027.34" x2="1956.98" y2="2027.34"/>
<polyline class="st11" points="2043.02,2080.03 2014.25,2080.03 1978.91,2085.78 "/>
<path class="st12" d="M2317.47,2244.49c12.98,11.2,25.62,22.28,37.02,41c3.21,5.28,5.53,9.85,26.53,58.97
	c11.29,26.4,12.38,29.2,16.18,34.73c17.63,25.63,37.01,27.29,38.47,35.76c2.19,12.69-36.17,37.48-206.48,90.16
	c-70.83,14.42-130.56,16.18-173.7,14.64c-123.69-4.4-220.82-39.73-272.22-58.42c-8.95-3.25-14.24-5.04-21.63-8.26
	c-64.28-27.98-107-67.13-156.72-112.69c-133.06-121.94-165.04-218.16-210.14-204.52c-27.09,8.2-27.78,46.62-67.67,154.43
	c-42.06,113.64-50.34,95.35-117.54,250.43c-72.15,166.49-83.13,234.94-128.22,242.08c-17.47,2.76-41.33-14.85-89.05-50.09
	c-34.62-25.57-68.67-61.91-135.34-133.56c-32.95-35.4-42.39-46.74-46.3-66.78c-9.22-47.14,21.95-92.19,35.62-112.69
	c55.02-82.56,87.17-183.06,135.34-271.3c67.7-123.99,108.25-198.26,153.16-304.69c49.77-117.94,62.7-175.38,117.54-204.52
	c53.1-28.21,109.88-10.98,146.03,0c73.74,22.39,113.96,65.34,174.53,116.87c44.94,38.23,9.86,3.57,227.95,158.6
	c258.7,183.89,284.9,216.19,315.61,232.47c6.87,3.64,11.18,4.97,22.75,9.61C2269.67,2209.03,2296.42,2226.34,2317.47,2244.49z"/>
<path class="st0" d="M1356.42,2987.57c26.54,14.76,27.76,62.93,29.11,158.67c1.52,107.8-11.85,124.47-20.11,131.94
	c-26.77,24.19-68.56,13.58-102.51,7.81c-2.05-0.35-110.84,5.62-328.42,17.57c-160.5,8.81-222.61,14.95-271.47-31.24
	c-6.46-6.11-37.6-35.55-30.46-59.62c8.94-30.15,68.23-28.95,181.65-70.96c89.65-33.21,86.87-75.88,213.71-137.73
	c57.84-28.21,79.94-31.14,95.74-31.56c60.26-1.61,78.9,31.97,143.05,29C1320.16,2998.98,1333.5,2974.83,1356.42,2987.57z"/>
<path class="st8" d="M1110.97,3045.75c-14.04-16.25-28.08-32.49-42.12-48.74"/>
<line class="st8" x1="1056.78" y1="3067.68" x2="1006.01" y2="3019.76"/>
<line class="st8" x1="746.54" y1="3045.75" x2="688.6" y2="2983.03"/>
<line class="st8" x1="688.6" y1="3067.68" x2="645.58" y2="3014.39"/>
<line class="st8" x1="667.09" y1="3091.67" x2="617.49" y2="3041.04"/>
<path class="st1" d="M1384.12,3212.22c-5.46-4.77-11.85,1.7-34.01,6.38c-41.69,8.8-96.92,2.31-101.37,2.45
	c-3.09,0.1-3.25,0.1-4.66,0.14c-22.46,0.74-88,3.57-205.49,16.55c-117.44,12.98-130.05,18.79-178.09,16.7
	c-55.59-2.42-111.47-16.53-133.4-22.51c-4.28-1.17-6.42-1.74-9.07-2.53c-49.17-14.54-59.51-30.96-72.11-25.89
	c-14.07,5.67-19.55,34.43-14.24,55.64c7.9,31.49,39.45,45.65,54.1,52.22c14.86,6.67,28.91,9.76,82.64,11.24
	c44.62,1.23,75.1,0.26,118.1-0.38c48.07-0.71,40.33,0.33,82.59-0.35c63.14-1.01,71.91-3.19,145.08-5.16
	c62.44-1.68,93.65-2.45,111.27-1.36c93.77,5.84,126.26,10.45,140.96-10.92c2.55-3.7,5.41-13.42,10.95-33
	C1386.22,3240.27,1392.17,3219.25,1384.12,3212.22z"/>
<path class="st13" d="M3201.78,2059.34c-27.87,24.98-62.64,52.36-104.48,77.91c-38.89,23.75-75.29,40.67-106.85,52.87"/>
<path class="st13" d="M3135.3,2215.17c-29.88,1.12-67.66,6.41-109.23,22.26c-17.61,6.72-33.46,14.4-47.49,22.26"/>
<path class="st14" d="M2693.64,2393.25c-47.49,7.42-94.98,14.84-142.47,22.26"/>
<path class="st5" d="M2801.68,1008.93c14.88,12.97-5.2,58.43,3.56,166.95c2.12,26.27,5.36,47.61,7.71,61.27
	c34.78,42.71,40.38,49.58,40.38,49.58l0,0c-0.02,0.01-41.21,27.78-69.45,43.58c-18.95,10.6-77.88,40.25-156.72,45.91
	c-33.33,2.39-50.14,3.39-57.59-6.4c-32.32-42.49,66.63-197.11,75.4-210.64C2705.22,1066.19,2783.16,992.79,2801.68,1008.93z"/>
<path class="st5" d="M2858.67,900.42c2.63,13.06,9.88,76.73,0,129.39c-0.51,2.72-0.96,4.84-1.09,5.47
	c-2.18,10.23-16.09,75.55-41.65,82.18c-20.65,5.36-34.35-31.38-49.87-25.04c-13.77,5.62-7.8,36.54-17.81,70.96
	c-18.75,64.46-80.19,95.21-131.79,121.04c-37.9,18.97-56.86,28.46-78.36,20.87c-36.66-12.94-54.75-62.94-71.24-108.52
	c-17.86-49.38-23.23-90.65-24.93-104.35c-18.66-150.13-27.99-225.2-3.56-267.12C2514.63,694.4,2839.28,804.25,2858.67,900.42z"/>
<path class="st15" d="M2862.6,996.94c11.09-3.8,13.83-29.18,19.39-79.71c4.37-39.75,2.77-61.95-0.88-81.23
	c-0.88-4.61-2.74-14.29-6.44-25.59c-12.8-39.1-36.87-64.11-51.27-79.5c-17.72-18.94-51.39-54.02-107.41-69.56
	c-37.5-10.4-69.74-7.82-87.88-4.97c-34.76,5.46-59.25,18.44-75.68,27.33c-31.26,16.91-52.13,36.03-61.03,44.72
	c-18.2,17.77-69.58,73.24-79.96,158.3c-7,57.39,5.85,118.49,20.16,119.99c19.35,2.04,19.55-115.31,89.95-147.32
	c30.76-13.99,63.83-6.7,74.83-4.27c47.9,10.56,76.5,44.28,84.21,53.63c35.65,43.24,32.36,84.17,53.43,87.65
	c20.56,3.39,27.94-34.34,56.99-37.56C2824.25,955.16,2842.86,1003.7,2862.6,996.94z"/>
<path class="st6" d="M1342.17,2964.85"/>
<path class="st16" d="M1218.3,3325.03"/>
<path class="st17" d="M2623.27,1310.1c16.88-0.94,51.91-3.2,92.41-22.36c54.59-25.82,92.96-79.45,92.97-79.46l0,0
	c-0.01,0.01-34.28,25.17-61.2,40.58c-32.12,18.39-59.25,27.05-96.82,36.75c-51.89,13.4-77.15,16.75-76.88,20.5
	C2574,1309.6,2599.69,1311.42,2623.27,1310.1z"/>
<path class="st17" d="M2868.47,1995.59c9.97,1.61,17.99,3.4,23.49,4.75c11.03,2.69,24.72,6.72,24.72,6.72s11.12,4.96,17.63,7.87
	c5.54,2.48,12.98,5.66,23.87,9.95c12.57,4.95,25.45,10.27,42.99,16.69c11.72,4.29,26.12,9.35,42.74,14.71
	c1.26,1.46,2.95,3.79,4.09,7.03c2.07,5.9,1,11.1,0.43,13.24c-63.32-23.68-126.64-47.36-189.97-71.04
	C2861.8,2002.19,2865.13,1998.89,2868.47,1995.59z"/>
<rect x="0" y="-4.41" class="st18" width="4000" height="4000"/>
</svg>
